<?xml version="1.0" standalone="no"?>
<!DOCTYPE svg PUBLIC "-//W3C//DTD SVG 20010904//EN"
 "http://www.w3.org/TR/2001/REC-SVG-20010904/DTD/svg10.dtd">
<svg version="1.0" xmlns="http://www.w3.org/2000/svg"
 width="200.000000pt" height="555.000000pt" viewBox="0 0 200.000000 555.000000"
 preserveAspectRatio="xMidYMid meet">

<g transform="translate(0.000000,555.000000) scale(0.100000,-0.100000)"
fill="#000000" stroke="none">
<path d="M1666 5535 c28 -21 174 -21 174 0 0 12 -17 15 -97 15 -87 0 -95 -1
-77 -15z"/>
<path d="M1920 5510 c0 -38 2 -40 30 -40 28 0 30 -2 30 -40 0 -40 0 -40 -39
-40 l-39 0 -4 -46 c-4 -53 8 -64 66 -64 l36 0 0 135 0 135 -40 0 -40 0 0 -40z"/>
<path d="M1039 5262 c-13 -10 -37 -23 -53 -30 -16 -7 -26 -15 -23 -19 4 -3 13
0 21 6 13 11 16 9 21 -12 5 -18 12 -23 26 -20 19 5 47 43 32 43 -4 0 -2 5 5
12 14 14 16 38 3 38 -4 0 -19 -8 -32 -18z m11 -31 c0 -6 -4 -13 -10 -16 -5 -3
-10 1 -10 9 0 9 5 16 10 16 6 0 10 -4 10 -9z"/>
<path d="M979 5058 c-2 -24 3 -43 14 -50 17 -10 0 -239 -20 -261 -16 -16 -16
-20 0 -46 47 -80 -9 -302 -116 -461 -20 -29 -63 -81 -95 -114 -180 -186 -235
-268 -248 -372 -10 -80 17 -187 66 -260 22 -32 40 -63 40 -69 0 -5 -28 -35
-62 -66 l-62 -56 43 -66 c32 -49 50 -67 72 -72 l29 -7 0 -103 0 -103 -70 -94
c-76 -100 -185 -309 -218 -418 -11 -36 -28 -111 -38 -168 -12 -73 -22 -102
-32 -102 -11 0 -12 -9 -7 -39 8 -48 -11 -90 -55 -121 -16 -12 -30 -26 -30 -31
0 -6 13 -1 30 11 16 12 35 18 41 14 9 -5 10 -119 5 -433 -3 -234 -9 -464 -12
-509 l-7 -84 -40 -29 c-48 -35 -54 -56 -22 -71 13 -6 26 -21 29 -34 7 -26 -11
-665 -19 -672 -2 -3 -47 -9 -100 -15 l-95 -10 0 -74 0 -73 1000 0 1000 0 0 92
0 91 -190 -7 c-166 -6 -191 -5 -196 9 -8 19 -64 21 -64 1 0 -14 -48 -19 -323
-29 l-98 -4 3 418 c2 229 6 421 10 425 4 4 82 -21 174 -55 91 -35 168 -61 170
-58 3 2 -59 28 -138 57 -79 29 -154 59 -168 66 -48 25 -4 14 100 -27 58 -22
185 -70 283 -106 97 -36 175 -68 173 -70 -3 -3 -55 14 -116 37 -61 23 -114 40
-116 37 -3 -3 39 -22 93 -42 54 -21 113 -44 132 -51 39 -16 65 -18 57 -5 -4 5
3 7 14 4 31 -8 13 25 -40 74 -39 35 -83 56 -305 141 -143 55 -271 103 -285
107 -14 4 -28 13 -32 19 -10 14 -10 364 -1 739 5 222 9 287 19 287 9 0 11 14
7 53 -6 63 29 320 57 410 11 36 31 90 45 122 32 71 12 68 -25 -3 -15 -29 -29
-49 -33 -46 -3 4 -9 -7 -13 -22 -3 -16 -12 -54 -20 -85 -7 -30 -17 -94 -20
-142 -4 -47 -10 -84 -14 -82 -4 2 -8 73 -9 157 -2 184 -11 324 -21 308 -4 -6
-5 -34 -2 -62 4 -38 2 -49 -7 -43 -10 5 -11 -2 -7 -31 4 -21 4 -35 0 -32 -12
12 -25 84 -26 138 l0 55 -7 -45 -6 -44 -18 27 c-10 15 -20 41 -24 58 -3 18 -9
26 -13 19 -12 -19 -40 17 -40 51 0 27 19 43 21 17 0 -7 5 -2 10 12 l10 25 19
-22 c17 -22 18 -22 35 -3 22 25 32 25 38 3 2 -10 3 -8 2 5 -3 28 4 28 125 -1
84 -20 100 -21 140 -10 l45 12 -42 -2 c-39 -2 -43 0 -53 27 -5 16 -10 79 -10
140 l0 111 20 -38 c14 -26 21 -58 21 -102 1 -36 5 -65 11 -65 5 0 6 -4 3 -10
-3 -5 -2 -10 4 -10 6 0 11 34 13 78 l3 77 60 32 c33 18 65 34 70 36 6 2 -5 35
-23 73 l-34 70 -67 12 c-57 11 -236 53 -266 63 -5 1 -50 0 -100 -4 -49 -4
-139 -10 -200 -13 l-110 -6 24 26 c14 14 27 24 29 21 3 -3 10 -1 16 5 7 5 41
12 76 15 78 8 101 11 160 24 61 14 70 13 70 -3 0 -8 5 -18 11 -22 9 -5 10 1 5
21 -6 24 -5 27 11 20 10 -5 27 -9 39 -10 11 -1 26 -5 33 -10 8 -4 31 -9 51
-10 21 -1 44 -6 51 -11 31 -19 59 -15 70 10 6 13 20 27 31 29 14 4 18 11 14
24 -3 10 -2 24 3 31 6 10 10 8 14 -9 8 -29 14 -23 22 20 3 19 0 46 -7 62 l-13
29 -12 -38 c-12 -36 -12 -36 -8 23 l4 60 -14 -72 c-7 -40 -17 -78 -21 -84 -14
-24 -26 23 -20 84 l6 62 -20 -74 c-11 -41 -23 -77 -28 -80 -4 -4 -9 -15 -10
-26 -5 -27 -15 -36 -30 -26 -10 6 -9 16 3 50 8 24 17 69 20 100 l5 56 -19 -70
c-11 -38 -20 -73 -20 -77 -1 -5 -11 -8 -23 -7 -21 0 -21 1 -4 8 14 5 16 10 7
15 -8 5 -10 23 -6 54 l5 47 -18 -55 c-45 -133 -66 -129 -40 7 10 54 17 109 15
123 -4 22 -4 21 -6 -5 -1 -16 -8 -50 -17 -75 -9 -25 -18 -58 -20 -74 -4 -30
-34 -60 -47 -47 -4 4 -5 16 -1 25 5 14 9 15 16 4 8 -12 6 7 -9 67 -3 16 -2 17
6 6 7 -11 11 -6 16 21 4 19 5 46 2 59 -3 19 -5 17 -6 -8 0 -18 -6 -33 -11 -33
-7 0 -9 23 -5 64 6 67 -9 291 -23 341 -8 26 -9 22 -10 -27 0 -31 -5 -65 -11
-76 -6 -11 -8 -27 -5 -35 7 -19 -9 -29 -31 -20 -15 5 -17 16 -12 72 3 41 2 55
-3 36 -4 -16 -8 -47 -9 -67 -2 -53 -21 -59 -21 -6 l-1 43 -14 -30 -13 -30 -2
35 c-2 36 -4 32 -15 -31 -4 -30 -9 -36 -24 -32 -13 3 -21 -1 -24 -14 -8 -30 4
98 14 151 5 27 8 51 5 53 -5 5 -26 -90 -26 -117 0 -14 -5 -18 -16 -13 -9 3
-20 0 -26 -8 -6 -9 -8 7 -5 51 5 65 5 65 -6 18 -9 -41 -14 -48 -35 -48 -21 0
-23 3 -18 25 7 29 66 115 78 115 4 0 8 5 8 11 0 15 53 98 63 99 4 0 7 -10 8
-22 1 -17 3 -14 11 11 5 19 7 43 5 53 -3 10 -1 16 4 12 5 -3 9 5 9 18 0 13 7
31 14 41 12 15 15 15 25 3 10 -12 9 -33 -3 -99 -9 -46 -16 -90 -15 -98 1 -21
28 82 29 109 0 14 4 21 11 16 6 -3 9 -15 6 -25 -5 -19 5 -58 29 -114 19 -42
18 -3 0 50 -25 70 -56 467 -35 433 7 -10 9 -9 9 5 0 11 9 32 21 48 l20 29 -23
9 c-23 9 -24 13 -27 130 -2 89 1 126 10 138 11 12 11 17 -2 27 -9 6 -16 16
-17 21 -1 15 -32 18 -33 3z m101 -1108 c-7 -53 -8 -53 -9 -13 -1 38 7 78 14
71 2 -2 0 -28 -5 -58z m-313 18 c-3 -8 -6 -5 -6 6 -1 11 2 17 5 13 3 -3 4 -12
1 -19z m60 -40 c-3 -8 -6 -5 -6 6 -1 11 2 17 5 13 3 -3 4 -12 1 -19z m-100
-60 c-3 -7 -5 -2 -5 12 0 14 2 19 5 13 2 -7 2 -19 0 -25z m623 -338 c0 -5 -2
-10 -4 -10 -3 0 -8 5 -11 10 -3 6 -1 10 4 10 6 0 11 -4 11 -10z m-240 -412 l5
-136 -25 3 c-14 2 -28 4 -32 4 -10 1 -10 146 -2 191 4 19 15 35 27 39 14 5 17
10 8 15 -6 4 -18 5 -26 2 -9 -3 -15 1 -15 10 0 11 8 14 28 12 l27 -3 5 -137z
m142 17 c41 -14 42 -15 8 -10 -42 5 -69 11 -92 20 -14 6 -15 2 -7 -32 11 -49
11 -53 -1 -53 -5 0 -10 18 -10 40 0 26 -6 43 -17 50 -24 15 61 4 119 -15z
m-499 -61 c-3 -8 -9 -11 -15 -8 -5 3 -7 12 -4 20 3 8 1 14 -5 14 -6 0 -7 5 -3
12 10 15 35 -19 27 -38z m119 -8 c-6 -48 -12 -46 -12 5 0 22 4 38 8 35 4 -3 6
-21 4 -40z m268 9 c0 -26 3 -33 15 -29 8 4 15 1 15 -6 0 -6 8 -10 18 -8 9 1
23 -1 30 -5 19 -13 33 2 26 29 -4 14 -2 24 5 24 6 0 11 -16 11 -35 0 -22 6
-37 17 -44 29 -16 10 -21 -37 -9 -130 30 -120 24 -120 73 0 25 5 45 10 45 6 0
10 -16 10 -35z m-243 3 c-3 -8 -6 -5 -6 6 -1 11 2 17 5 13 3 -3 4 -12 1 -19z
m143 -8 c0 -16 -4 -30 -10 -30 -5 0 -10 3 -11 8 0 4 -2 17 -3 30 -2 13 3 22
11 22 8 0 13 -12 13 -30z m173 5 c4 -8 2 -17 -3 -20 -6 -4 -10 3 -10 14 0 25
6 27 13 6z m-476 -62 c-3 -10 -5 -4 -5 12 0 17 2 24 5 18 2 -7 2 -21 0 -30z
m150 -19 c-3 -3 -12 -4 -19 -1 -8 3 -5 6 6 6 11 1 17 -2 13 -5z m23 -45 c0 -6
8 -8 18 -5 14 5 18 0 20 -20 2 -28 -1 -27 -52 19 -17 15 -18 17 -3 17 9 0 17
-5 17 -11z m-60 -10 c0 24 23 8 93 -61 65 -65 75 -81 99 -153 15 -44 32 -100
38 -124 6 -24 16 -55 21 -70 6 -14 12 -54 14 -87 2 -34 7 -78 10 -98 6 -28 4
-36 -8 -36 -10 0 -17 16 -22 58 -3 31 -15 92 -26 135 -11 43 -17 83 -13 90 4
7 4 9 -1 5 -5 -5 -19 20 -33 55 -31 78 -98 183 -160 250 -26 28 -39 46 -29 38
11 -9 17 -10 17 -2z m-116 -31 c-3 -4 4 -8 14 -8 25 0 37 -27 14 -33 -9 -3 -2
-5 17 -6 54 -2 27 -14 -30 -14 -28 1 -64 -6 -81 -14 -26 -13 -32 -13 -40 -2
-8 11 -9 10 -4 -3 3 -12 0 -18 -9 -18 -8 0 -14 -5 -13 -12 2 -6 -5 -14 -16
-16 -13 -3 -16 0 -10 10 5 7 9 18 9 23 1 6 6 9 13 8 6 -2 14 8 18 21 3 14 21
35 39 48 18 12 31 26 28 31 -3 5 4 4 16 -2 18 -10 21 -9 21 6 0 15 2 15 9 3 6
-8 7 -18 5 -22z m63 -94 c2 -7 -5 -30 -16 -51 -17 -34 -25 -40 -53 -40 -18 0
-25 2 -15 4 13 4 17 15 17 54 0 49 0 49 31 47 17 -1 33 -8 36 -14z m-119 -29
c-3 -13 -1 -26 3 -27 13 -4 -1 -48 -15 -48 -7 0 -20 17 -30 37 -17 35 -17 38
0 50 29 21 47 16 42 -12z m191 -13 c12 -12 9 -19 -21 -49 -31 -31 -38 -33 -55
-22 -20 12 -20 13 5 61 26 51 28 51 71 10z m-335 -53 c-46 -69 -68 -147 -61
-222 4 -40 1 -64 -6 -72 -10 -9 -12 0 -11 41 1 33 -3 51 -8 47 -6 -3 -8 -23
-5 -44 3 -22 1 -39 -4 -39 -5 0 -9 -7 -9 -15 0 -8 6 -15 14 -15 8 0 17 -11 20
-25 9 -36 25 -31 21 8 -4 32 -4 32 10 7 7 -14 11 -28 8 -32 -9 -16 8 -46 30
-53 21 -6 21 -6 2 -15 -18 -7 -19 -8 -3 -15 10 -4 15 -11 12 -16 -3 -5 0 -9 6
-9 6 0 10 7 8 16 -2 10 7 20 20 25 14 5 21 5 17 0 -3 -5 0 -11 7 -14 7 -2 5
-3 -6 -1 -17 3 -18 -4 -12 -99 3 -56 6 -110 6 -121 1 -17 2 -17 20 -1 14 13
20 34 23 79 3 52 3 49 5 -24 1 -58 -1 -80 -8 -70 -6 10 -10 11 -10 3 0 -7 -7
-13 -16 -13 -29 0 -43 27 -46 91 -2 43 -7 63 -15 62 -6 -2 -26 -4 -42 -5 -30
-2 -31 -4 -31 -50 0 -26 -5 -50 -12 -54 -8 -5 -10 9 -5 54 3 35 1 62 -4 62 -5
0 -9 -9 -9 -19 0 -11 -5 -21 -10 -23 -15 -5 -26 -78 -12 -78 6 0 9 6 6 14 -3
8 -1 23 6 33 9 14 10 8 6 -31 -7 -59 -8 -59 -45 -58 -23 0 -28 -3 -24 -17 4
-14 -2 -20 -27 -23 -34 -5 -47 6 -31 26 7 8 11 18 10 22 -2 5 3 36 11 69 16
72 18 88 19 138 1 26 5 36 13 31 8 -5 9 -2 5 10 -7 18 12 105 37 171 8 22 15
48 16 58 0 9 5 17 10 17 6 0 10 12 10 26 0 14 4 23 10 19 6 -3 10 3 10 15 0
26 90 191 101 184 4 -2 -8 -27 -27 -55z m91 21 c9 -16 13 -30 11 -30 -3 0 -12
14 -21 30 -9 17 -13 30 -11 30 3 0 12 -13 21 -30z m-14 -32 c23 -43 -15 -73
-62 -48 -24 14 -24 24 3 60 23 31 37 28 59 -12z m304 -35 c6 -30 5 -31 -36
-38 -30 -5 -44 -4 -50 6 -13 20 -12 21 28 52 40 30 48 27 58 -20z m-327 -57
c2 -3 -5 -13 -16 -24 -11 -11 -18 -22 -16 -25 10 -10 56 7 68 25 9 13 16 16
21 8 4 -6 16 -8 27 -4 14 4 19 2 16 -7 -2 -7 -17 -14 -34 -16 -16 -2 -40 -8
-54 -13 -36 -13 -111 -22 -85 -10 19 8 19 9 -2 9 -26 1 -28 13 -12 59 l11 32
36 -16 c20 -8 38 -16 40 -18z m369 -41 c-1 -25 -6 -45 -10 -45 -5 0 -5 -10 -2
-22 7 -23 7 -23 -8 -3 -8 11 -12 22 -8 25 4 3 7 15 8 28 0 12 2 24 3 27 1 3 4
10 5 15 1 6 3 12 4 15 0 3 3 5 6 5 2 0 3 -20 2 -45z m-197 25 c0 -5 -15 -10
-32 -9 -31 1 -32 1 -8 9 35 11 40 11 40 0z m155 -32 c-9 -43 -8 -42 -49 -28
-40 13 -48 37 -13 44 12 3 31 7 42 9 11 3 21 5 23 6 2 0 0 -14 -3 -31z m-126
-2 c26 -1 43 -26 17 -26 -22 0 -66 22 -66 32 0 5 6 6 12 2 7 -5 23 -8 37 -8z
m-226 -60 c-9 -15 -46 -41 -57 -41 -5 0 -11 11 -13 24 -2 18 0 22 12 17 9 -3
14 -2 11 2 -3 5 8 9 24 9 18 0 27 -4 23 -11z m271 -27 c29 -17 34 -24 26 -38
-16 -31 -36 -43 -47 -29 -22 27 -33 57 -27 72 8 20 6 20 48 -5z m-250 -27
l-17 -27 21 19 c19 16 22 17 22 3 0 -28 -40 -86 -56 -80 -18 7 -18 8 2 38 9
14 13 25 10 25 -4 0 0 10 9 23 8 13 12 27 8 32 -5 4 -2 5 5 1 10 -6 10 -13 -4
-34z m346 13 c0 -14 -7 -28 -15 -31 -8 -4 -15 -12 -15 -20 0 -8 -7 -14 -15
-14 -10 0 -12 -6 -8 -17 6 -16 5 -16 -10 -4 -16 13 -15 15 8 37 14 13 25 29
25 36 0 9 3 9 11 -2 8 -12 9 -9 5 13 -4 15 -2 27 4 27 5 0 10 -11 10 -25z
m-154 -43 c6 -12 13 -19 17 -16 3 3 3 -4 0 -15 -6 -23 -39 -51 -59 -51 -19 0
-23 99 -4 104 24 6 34 1 46 -22z m-96 -45 l0 -54 -30 5 c-35 5 -35 4 -14 59
24 61 44 57 44 -10z m-55 13 c-9 -16 -18 -30 -21 -30 -2 0 2 14 11 30 9 17 18
30 21 30 2 0 -2 -13 -11 -30z m219 -61 c-22 -23 -32 -27 -57 -22 -21 4 -28 3
-23 -5 4 -7 1 -12 -8 -12 -9 0 -16 4 -16 9 0 10 71 56 83 53 4 -1 10 5 13 13
5 12 9 13 21 4 12 -10 10 -16 -13 -40z m213 -51 c-3 -8 -6 -5 -6 6 -1 11 2 17
5 13 3 -3 4 -12 1 -19z m-267 2 c-8 -5 -22 -9 -30 -9 -10 0 -8 3 5 9 27 12 43
12 25 0z m27 -42 c-3 -7 -5 -2 -5 12 0 14 2 19 5 13 2 -7 2 -19 0 -25z m103
21 c0 -5 -11 -9 -24 -9 -13 0 -33 -3 -43 -6 -16 -5 -16 -4 -2 8 18 15 69 20
69 7z m35 -11 c6 -4 2 -8 -7 -8 -10 0 -18 7 -18 17 0 9 3 12 8 7 4 -5 12 -12
17 -16z m184 -61 c0 -27 -2 -29 -9 -12 -12 28 -12 57 0 50 6 -3 10 -21 9 -38z
m-297 -18 l-10 -34 1 43 c0 25 4 39 9 34 6 -6 5 -23 0 -43z m-22 31 c0 -5 -2
-10 -4 -10 -3 0 -8 5 -11 10 -3 6 -1 10 4 10 6 0 11 -4 11 -10z m140 6 c0 -3
-4 -8 -10 -11 -5 -3 -10 -1 -10 4 0 6 5 11 10 11 6 0 10 -2 10 -4z m-350 -56
c0 -22 -4 -40 -10 -40 -5 0 -10 18 -10 40 0 22 5 40 10 40 6 0 10 -18 10 -40z
m210 26 c0 -3 -4 -8 -10 -11 -5 -3 -10 -1 -10 4 0 6 5 11 10 11 6 0 10 -2 10
-4z m0 -36 c0 -5 -5 -10 -11 -10 -5 0 -7 5 -4 10 3 6 8 10 11 10 2 0 4 -4 4
-10z m127 -22 c-3 -8 -6 -5 -6 6 -1 11 2 17 5 13 3 -3 4 -12 1 -19z m-623
-209 c-1 -30 -2 -142 -4 -249 -2 -107 -6 -179 -10 -160 l-6 35 -8 -40 c-4 -22
-9 -44 -10 -50 -2 -5 -3 45 -3 113 0 100 2 122 13 118 8 -3 14 -1 14 4 0 6 -7
10 -17 10 -14 0 -15 13 -10 130 6 132 10 154 30 147 7 -2 12 -25 11 -58z m101
41 c0 -7 -6 -15 -12 -17 -8 -3 -13 4 -13 17 0 13 5 20 13 18 6 -3 12 -11 12
-18z m430 -180 c-10 -11 -24 -20 -31 -20 -7 0 -15 -6 -17 -12 -4 -9 -6 -9 -6
-1 -1 6 14 20 32 32 40 26 45 26 22 1z m20 -19 c-3 -6 -11 -11 -16 -11 -5 0
-4 6 3 14 14 16 24 13 13 -3z m-255 -49 c7 2 14 -9 15 -24 4 -34 -10 -36 -27
-5 -7 12 -20 22 -28 22 -8 0 -16 8 -18 18 -4 18 -2 18 21 2 14 -8 30 -14 37
-13z m-110 -42 c0 -5 -5 -10 -11 -10 -5 0 -7 5 -4 10 3 6 8 10 11 10 2 0 4 -4
4 -10z m227 -97 c-3 -10 -5 -2 -5 17 0 19 2 27 5 18 2 -10 2 -26 0 -35z m-70
-5 c-3 -7 -5 -2 -5 12 0 14 2 19 5 13 2 -7 2 -19 0 -25z m-10 -110 c-3 -8 -6
-5 -6 6 -1 11 2 17 5 13 3 -3 4 -12 1 -19z"/>
<path d="M710 2890 c8 -5 24 -10 34 -10 26 0 18 6 -19 14 -22 5 -26 4 -15 -4z"/>
<path d="M382 2245 c0 -16 2 -22 5 -12 2 9 2 23 0 30 -3 6 -5 -1 -5 -18z"/>
<path d="M520 2220 c-12 -8 -9 -10 13 -10 15 0 27 5 27 10 0 13 -20 13 -40 0z"/>
<path d="M370 2185 c-3 -16 -4 -54 -2 -83 3 -41 7 -52 18 -48 8 3 14 0 14 -6
0 -6 3 -8 6 -5 4 4 1 13 -6 22 -7 8 -10 24 -7 35 3 11 1 18 -3 15 -5 -3 -10
18 -12 47 -2 41 -4 46 -8 23z"/>
<path d="M402 2174 c-7 -8 -11 -22 -9 -32 4 -14 6 -13 12 6 4 12 11 22 16 22
5 0 9 5 9 10 0 14 -13 12 -28 -6z"/>
<path d="M799 2317 c7 -7 14 -8 21 -1 6 6 2 10 -12 11 -16 2 -18 -1 -9 -10z"/>
<path d="M301 1564 c0 -11 3 -14 6 -6 3 7 2 16 -1 19 -3 4 -6 -2 -5 -13z"/>
<path d="M1031 4574 c0 -11 3 -14 6 -6 3 7 2 16 -1 19 -3 4 -6 -2 -5 -13z"/>
<path d="M1080 4365 c0 -5 5 -17 10 -25 5 -8 10 -10 10 -5 0 6 -5 17 -10 25
-5 8 -10 11 -10 5z"/>
<path d="M1067 4287 c-3 -8 3 -13 15 -14 10 -1 18 3 16 9 -6 18 -25 21 -31 5z"/>
<path d="M916 4179 c-8 -42 0 -50 9 -9 4 17 5 34 2 36 -2 3 -7 -10 -11 -27z"/>
<path d="M1031 4154 c0 -11 3 -14 6 -6 3 7 2 16 -1 19 -3 4 -6 -2 -5 -13z"/>
<path d="M964 4135 c-3 -8 -4 -20 -2 -27 3 -7 7 -1 10 15 6 29 1 36 -8 12z"/>
<path d="M841 4124 c0 -11 3 -14 6 -6 3 7 2 16 -1 19 -3 4 -6 -2 -5 -13z"/>
<path d="M1021 4104 c0 -11 3 -14 6 -6 3 7 2 16 -1 19 -3 4 -6 -2 -5 -13z"/>
<path d="M952 4065 c0 -16 2 -22 5 -12 2 9 2 23 0 30 -3 6 -5 -1 -5 -18z"/>
<path d="M858 4035 c2 -14 6 -25 8 -25 2 0 4 11 4 25 0 14 -4 25 -9 25 -4 0
-6 -11 -3 -25z"/>
<path d="M1030 3965 c0 -8 4 -15 10 -15 5 0 7 7 4 15 -4 8 -8 15 -10 15 -2 0
-4 -7 -4 -15z"/>
<path d="M1421 3864 c0 -11 3 -14 6 -6 3 7 2 16 -1 19 -3 4 -6 -2 -5 -13z"/>
<path d="M1440 3833 c0 -5 7 -18 15 -29 13 -18 14 -18 8 4 -5 22 -23 41 -23
25z"/>
<path d="M1232 3710 c0 -14 2 -19 5 -12 2 6 2 18 0 25 -3 6 -5 1 -5 -13z"/>
<path d="M1422 3710 c0 -14 2 -19 5 -12 2 6 2 18 0 25 -3 6 -5 1 -5 -13z"/>
<path d="M1446 3564 c-4 -9 -4 -19 -1 -22 2 -3 7 3 11 12 4 9 4 19 1 22 -2 3
-7 -3 -11 -12z"/>
<path d="M1352 3480 c-9 -14 -7 -21 7 -34 22 -20 27 -20 34 -2 4 11 1 13 -11
8 -16 -6 -16 -4 -1 19 16 23 16 25 0 26 -10 1 -22 -7 -29 -17z"/>
<path d="M1410 3447 c-15 -19 -19 -32 -12 -39 8 -8 30 13 55 58 14 24 -23 8
-43 -19z"/>
<path d="M1387 3054 c-11 -11 -8 -42 4 -49 16 -10 19 -2 11 29 -4 15 -11 24
-15 20z"/>
<path d="M1352 2975 c-11 -12 -10 -15 3 -15 8 0 15 7 15 15 0 18 -2 18 -18 0z"/>
<path d="M1195 2930 c4 -6 11 -8 16 -5 14 9 11 15 -7 15 -8 0 -12 -5 -9 -10z"/>
<path d="M1011 2904 c0 -11 3 -14 6 -6 3 7 2 16 -1 19 -3 4 -6 -2 -5 -13z"/>
<path d="M1102 2890 c0 -14 2 -19 5 -12 2 6 2 18 0 25 -3 6 -5 1 -5 -13z"/>
<path d="M1216 2745 c-3 -9 -6 -24 -5 -33 0 -9 5 -4 10 12 9 32 6 48 -5 21z"/>
<path d="M1446 2637 c3 -10 9 -15 12 -12 3 3 0 11 -7 18 -10 9 -11 8 -5 -6z"/>
<path d="M1361 2537 c7 -15 18 -27 26 -27 7 0 29 -9 49 -19 28 -15 32 -20 17
-24 -15 -4 -15 -5 -1 -6 9 0 20 -10 23 -21 4 -11 15 -20 26 -20 18 0 19 2 5
28 -29 53 -60 82 -93 86 -18 2 -40 9 -48 16 -14 12 -15 11 -4 -13z"/>
<path d="M1405 2450 c-3 -6 1 -7 9 -4 18 7 21 14 7 14 -6 0 -13 -4 -16 -10z"/>
<path d="M1415 2276 c19 -17 41 -25 60 -24 l30 1 -30 4 c-16 3 -43 14 -60 25
l-30 20 30 -26z"/>
<path d="M1308 2163 c4 -44 11 -56 28 -54 4 1 7 19 8 42 2 29 -2 43 -15 50
-26 14 -27 13 -21 -38z"/>
<path d="M1543 2079 c4 -13 7 -36 7 -51 0 -18 5 -28 15 -28 11 0 15 11 15 40
0 30 -5 42 -21 51 -20 10 -21 9 -16 -12z"/>
<path d="M1691 2044 c0 -11 3 -14 6 -6 3 7 2 16 -1 19 -3 4 -6 -2 -5 -13z"/>
<path d="M1710 2041 c0 -6 5 -13 10 -16 6 -3 10 1 10 9 0 9 -4 16 -10 16 -5 0
-10 -4 -10 -9z"/>
<path d="M1729 1934 c5 -28 52 -94 65 -94 14 0 4 25 -21 55 -16 17 -33 40 -39
51 -10 16 -11 14 -5 -12z"/>
<path d="M1323 1668 c-15 -28 -19 -64 -21 -216 -4 -198 -2 -206 49 -217 16 -4
29 -11 29 -17 0 -6 -7 -7 -16 -4 -9 3 -28 9 -42 12 -35 9 -18 -10 23 -24 17
-5 37 -13 45 -16 13 -5 15 20 14 196 0 112 -4 214 -8 228 -14 44 -38 90 -47
90 -5 0 -16 -15 -26 -32z"/>
<path d="M1504 1604 c-17 -24 -19 -53 -22 -224 l-3 -195 38 -17 38 -18 -40 5
-40 4 50 -23 50 -23 3 181 c3 190 -6 262 -37 310 l-19 28 -18 -28z"/>
</g>
</svg>
